{
	"asset":{
		"generator":"Khronos glTF Blender I/O v4.3.47",
		"version":"2.0"
	},
	"extensionsUsed":[
		"KHR_materials_specular"
	],
	"scene":0,
	"scenes":[
		{
			"name":"Scene",
			"nodes":[
				0,
				1
			]
		}
	],
	"nodes":[
		{
			"mesh":0,
			"name":"Cube",
			"translation":[
				0,
				1,
				0
			]
		},
		{
			"mesh":1,
			"name":"Sphere",
			"rotation":[
				0.24928247928619385,
				0,
				0,
				0.9684308171272278
			],
			"scale":[
				0.10633130371570587,
				0.30679717659950256,
				0.09503191709518433
			],
			"translation":[
				-0.4688822627067566,
				1.2075060606002808,
				-1.2080460786819458
			]
		}
	],
	"materials":[
		{
			"doubleSided":true,
			"extensions":{
				"KHR_materials_specular":{
					"specularFactor":0.5
				}
			},
			"name":"Skin",
			"pbrMetallicRoughness":{
				"baseColorFactor":[
					0.059776730835437775,
					0.8000000715255737,
					0.1372586041688919,
					1
				],
				"metallicFactor":0,
				"roughnessFactor":25
			}
		},
		{
			"doubleSided":true,
			"extensions":{
				"KHR_materials_specular":{
					"specularFactor":0.5
				}
			},
			"name":"Eyes",
			"pbrMetallicRoughness":{
				"baseColorFactor":[
					0.04696127027273178,
					0.04696127027273178,
					0.04696127027273178,
					1
				],
				"metallicFactor":0,
				"roughnessFactor":25
			}
		}
	],
	"meshes":[
		{
			"name":"Cube.001",
			"primitives":[
				{
					"attributes":{
						"POSITION":0,
						"NORMAL":1,
						"TEXCOORD_0":2
					},
					"indices":3,
					"material":0
				}
			]
		},
		{
			"name":"Sphere",
			"primitives":[
				{
					"attributes":{
						"POSITION":4,
						"NORMAL":5,
						"TEXCOORD_0":6
					},
					"indices":7,
					"material":1
				}
			]
		}
	],
	"accessors":[
		{
			"bufferView":0,
			"componentType":5126,
			"count":719,
			"max":[
				1.500391960144043,
				1.057767391204834,
				1.500391960144043
			],
			"min":[
				-1.500391960144043,
				-0.9113839864730835,
				-1.500391960144043
			],
			"type":"VEC3"
		},
		{
			"bufferView":1,
			"componentType":5126,
			"count":719,
			"type":"VEC3"
		},
		{
			"bufferView":2,
			"componentType":5126,
			"count":719,
			"type":"VEC2"
		},
		{
			"bufferView":3,
			"componentType":5123,
			"count":3840,
			"type":"SCALAR"
		},
		{
			"bufferView":4,
			"componentType":5126,
			"count":1118,
			"max":[
				9.819270133972168,
				1.000000238418579,
				0.9999993443489075
			],
			"min":[
				-0.9999990463256836,
				-1,
				-1.0000009536743164
			],
			"type":"VEC3"
		},
		{
			"bufferView":5,
			"componentType":5126,
			"count":1118,
			"type":"VEC3"
		},
		{
			"bufferView":6,
			"componentType":5126,
			"count":1118,
			"type":"VEC2"
		},
		{
			"bufferView":7,
			"componentType":5123,
			"count":5760,
			"type":"SCALAR"
		}
	],
	"bufferViews":[
		{
			"buffer":0,
			"byteLength":8628,
			"byteOffset":0,
			"target":34962
		},
		{
			"buffer":0,
			"byteLength":8628,
			"byteOffset":8628,
			"target":34962
		},
		{
			"buffer":0,
			"byteLength":5752,
			"byteOffset":17256,
			"target":34962
		},
		{
			"buffer":0,
			"byteLength":7680,
			"byteOffset":23008,
			"target":34963
		},
		{
			"buffer":0,
			"byteLength":13416,
			"byteOffset":30688,
			"target":34962
		},
		{
			"buffer":0,
			"byteLength":13416,
			"byteOffset":44104,
			"target":34962
		},
		{
			"buffer":0,
			"byteLength":8944,
			"byteOffset":57520,
			"target":34962
		},
		{
			"buffer":0,
			"byteLength":11520,
			"byteOffset":66464,
			"target":34963
		}
	],
	"buffers":[
		{
			"byteLength":77984,
			"uri":"data:application/octet-stream;base64,"
		}
	]
}
